<?xml version="1.0" standalone="no"?>
<!DOCTYPE svg PUBLIC "-//W3C//DTD SVG 1.1//EN" "http://www.w3.org/Graphics/SVG/1.1/DTD/svg11.dtd">
<svg width="222" height="222" version="1.1" xmlns="http://www.w3.org/2000/svg">
	<desc>||43870200010005433520000010|000000|Parafia w Dysie|Darowizna na rzecz parafii|||</desc>
	<g id="elements" fill="black" stroke="none">
		<rect x="0" y="0" width="6" height="6" />
		<rect x="6" y="0" width="6" height="6" />
		<rect x="12" y="0" width="6" height="6" />
		<rect x="18" y="0" width="6" height="6" />
		<rect x="24" y="0" width="6" height="6" />
		<rect x="30" y="0" width="6" height="6" />
		<rect x="36" y="0" width="6" height="6" />
		<rect x="54" y="0" width="6" height="6" />
		<rect x="60" y="0" width="6" height="6" />
		<rect x="66" y="0" width="6" height="6" />
		<rect x="102" y="0" width="6" height="6" />
		<rect x="108" y="0" width="6" height="6" />
		<rect x="114" y="0" width="6" height="6" />
		<rect x="126" y="0" width="6" height="6" />
		<rect x="150" y="0" width="6" height="6" />
		<rect x="156" y="0" width="6" height="6" />
		<rect x="162" y="0" width="6" height="6" />
		<rect x="180" y="0" width="6" height="6" />
		<rect x="186" y="0" width="6" height="6" />
		<rect x="192" y="0" width="6" height="6" />
		<rect x="198" y="0" width="6" height="6" />
		<rect x="204" y="0" width="6" height="6" />
		<rect x="210" y="0" width="6" height="6" />
		<rect x="216" y="0" width="6" height="6" />
		<rect x="0" y="6" width="6" height="6" />
		<rect x="36" y="6" width="6" height="6" />
		<rect x="48" y="6" width="6" height="6" />
		<rect x="72" y="6" width="6" height="6" />
		<rect x="78" y="6" width="6" height="6" />
		<rect x="96" y="6" width="6" height="6" />
		<rect x="108" y="6" width="6" height="6" />
		<rect x="114" y="6" width="6" height="6" />
		<rect x="138" y="6" width="6" height="6" />
		<rect x="144" y="6" width="6" height="6" />
		<rect x="180" y="6" width="6" height="6" />
		<rect x="216" y="6" width="6" height="6" />
		<rect x="0" y="12" width="6" height="6" />
		<rect x="12" y="12" width="6" height="6" />
		<rect x="18" y="12" width="6" height="6" />
		<rect x="24" y="12" width="6" height="6" />
		<rect x="36" y="12" width="6" height="6" />
		<rect x="48" y="12" width="6" height="6" />
		<rect x="54" y="12" width="6" height="6" />
		<rect x="78" y="12" width="6" height="6" />
		<rect x="102" y="12" width="6" height="6" />
		<rect x="108" y="12" width="6" height="6" />
		<rect x="114" y="12" width="6" height="6" />
		<rect x="120" y="12" width="6" height="6" />
		<rect x="144" y="12" width="6" height="6" />
		<rect x="150" y="12" width="6" height="6" />
		<rect x="162" y="12" width="6" height="6" />
		<rect x="168" y="12" width="6" height="6" />
		<rect x="180" y="12" width="6" height="6" />
		<rect x="192" y="12" width="6" height="6" />
		<rect x="198" y="12" width="6" height="6" />
		<rect x="204" y="12" width="6" height="6" />
		<rect x="216" y="12" width="6" height="6" />
		<rect x="0" y="18" width="6" height="6" />
		<rect x="12" y="18" width="6" height="6" />
		<rect x="18" y="18" width="6" height="6" />
		<rect x="24" y="18" width="6" height="6" />
		<rect x="36" y="18" width="6" height="6" />
		<rect x="48" y="18" width="6" height="6" />
		<rect x="54" y="18" width="6" height="6" />
		<rect x="66" y="18" width="6" height="6" />
		<rect x="78" y="18" width="6" height="6" />
		<rect x="96" y="18" width="6" height="6" />
		<rect x="108" y="18" width="6" height="6" />
		<rect x="114" y="18" width="6" height="6" />
		<rect x="120" y="18" width="6" height="6" />
		<rect x="138" y="18" width="6" height="6" />
		<rect x="144" y="18" width="6" height="6" />
		<rect x="150" y="18" width="6" height="6" />
		<rect x="156" y="18" width="6" height="6" />
		<rect x="168" y="18" width="6" height="6" />
		<rect x="180" y="18" width="6" height="6" />
		<rect x="192" y="18" width="6" height="6" />
		<rect x="198" y="18" width="6" height="6" />
		<rect x="204" y="18" width="6" height="6" />
		<rect x="216" y="18" width="6" height="6" />
		<rect x="0" y="24" width="6" height="6" />
		<rect x="12" y="24" width="6" height="6" />
		<rect x="18" y="24" width="6" height="6" />
		<rect x="24" y="24" width="6" height="6" />
		<rect x="36" y="24" width="6" height="6" />
		<rect x="54" y="24" width="6" height="6" />
		<rect x="60" y="24" width="6" height="6" />
		<rect x="72" y="24" width="6" height="6" />
		<rect x="90" y="24" width="6" height="6" />
		<rect x="96" y="24" width="6" height="6" />
		<rect x="108" y="24" width="6" height="6" />
		<rect x="120" y="24" width="6" height="6" />
		<rect x="138" y="24" width="6" height="6" />
		<rect x="144" y="24" width="6" height="6" />
		<rect x="156" y="24" width="6" height="6" />
		<rect x="162" y="24" width="6" height="6" />
		<rect x="180" y="24" width="6" height="6" />
		<rect x="192" y="24" width="6" height="6" />
		<rect x="198" y="24" width="6" height="6" />
		<rect x="204" y="24" width="6" height="6" />
		<rect x="216" y="24" width="6" height="6" />
		<rect x="0" y="30" width="6" height="6" />
		<rect x="36" y="30" width="6" height="6" />
		<rect x="72" y="30" width="6" height="6" />
		<rect x="78" y="30" width="6" height="6" />
		<rect x="84" y="30" width="6" height="6" />
		<rect x="90" y="30" width="6" height="6" />
		<rect x="108" y="30" width="6" height="6" />
		<rect x="138" y="30" width="6" height="6" />
		<rect x="144" y="30" width="6" height="6" />
		<rect x="180" y="30" width="6" height="6" />
		<rect x="216" y="30" width="6" height="6" />
		<rect x="0" y="36" width="6" height="6" />
		<rect x="6" y="36" width="6" height="6" />
		<rect x="12" y="36" width="6" height="6" />
		<rect x="18" y="36" width="6" height="6" />
		<rect x="24" y="36" width="6" height="6" />
		<rect x="30" y="36" width="6" height="6" />
		<rect x="36" y="36" width="6" height="6" />
		<rect x="48" y="36" width="6" height="6" />
		<rect x="60" y="36" width="6" height="6" />
		<rect x="72" y="36" width="6" height="6" />
		<rect x="84" y="36" width="6" height="6" />
		<rect x="96" y="36" width="6" height="6" />
		<rect x="108" y="36" width="6" height="6" />
		<rect x="120" y="36" width="6" height="6" />
		<rect x="132" y="36" width="6" height="6" />
		<rect x="144" y="36" width="6" height="6" />
		<rect x="156" y="36" width="6" height="6" />
		<rect x="168" y="36" width="6" height="6" />
		<rect x="180" y="36" width="6" height="6" />
		<rect x="186" y="36" width="6" height="6" />
		<rect x="192" y="36" width="6" height="6" />
		<rect x="198" y="36" width="6" height="6" />
		<rect x="204" y="36" width="6" height="6" />
		<rect x="210" y="36" width="6" height="6" />
		<rect x="216" y="36" width="6" height="6" />
		<rect x="48" y="42" width="6" height="6" />
		<rect x="60" y="42" width="6" height="6" />
		<rect x="66" y="42" width="6" height="6" />
		<rect x="84" y="42" width="6" height="6" />
		<rect x="114" y="42" width="6" height="6" />
		<rect x="120" y="42" width="6" height="6" />
		<rect x="126" y="42" width="6" height="6" />
		<rect x="144" y="42" width="6" height="6" />
		<rect x="150" y="42" width="6" height="6" />
		<rect x="162" y="42" width="6" height="6" />
		<rect x="0" y="48" width="6" height="6" />
		<rect x="36" y="48" width="6" height="6" />
		<rect x="48" y="48" width="6" height="6" />
		<rect x="72" y="48" width="6" height="6" />
		<rect x="78" y="48" width="6" height="6" />
		<rect x="108" y="48" width="6" height="6" />
		<rect x="114" y="48" width="6" height="6" />
		<rect x="120" y="48" width="6" height="6" />
		<rect x="132" y="48" width="6" height="6" />
		<rect x="138" y="48" width="6" height="6" />
		<rect x="150" y="48" width="6" height="6" />
		<rect x="156" y="48" width="6" height="6" />
		<rect x="162" y="48" width="6" height="6" />
		<rect x="168" y="48" width="6" height="6" />
		<rect x="174" y="48" width="6" height="6" />
		<rect x="180" y="48" width="6" height="6" />
		<rect x="198" y="48" width="6" height="6" />
		<rect x="204" y="48" width="6" height="6" />
		<rect x="210" y="48" width="6" height="6" />
		<rect x="6" y="54" width="6" height="6" />
		<rect x="18" y="54" width="6" height="6" />
		<rect x="42" y="54" width="6" height="6" />
		<rect x="60" y="54" width="6" height="6" />
		<rect x="66" y="54" width="6" height="6" />
		<rect x="72" y="54" width="6" height="6" />
		<rect x="78" y="54" width="6" height="6" />
		<rect x="102" y="54" width="6" height="6" />
		<rect x="120" y="54" width="6" height="6" />
		<rect x="138" y="54" width="6" height="6" />
		<rect x="150" y="54" width="6" height="6" />
		<rect x="156" y="54" width="6" height="6" />
		<rect x="162" y="54" width="6" height="6" />
		<rect x="180" y="54" width="6" height="6" />
		<rect x="186" y="54" width="6" height="6" />
		<rect x="198" y="54" width="6" height="6" />
		<rect x="210" y="54" width="6" height="6" />
		<rect x="216" y="54" width="6" height="6" />
		<rect x="0" y="60" width="6" height="6" />
		<rect x="6" y="60" width="6" height="6" />
		<rect x="18" y="60" width="6" height="6" />
		<rect x="24" y="60" width="6" height="6" />
		<rect x="36" y="60" width="6" height="6" />
		<rect x="42" y="60" width="6" height="6" />
		<rect x="72" y="60" width="6" height="6" />
		<rect x="84" y="60" width="6" height="6" />
		<rect x="108" y="60" width="6" height="6" />
		<rect x="120" y="60" width="6" height="6" />
		<rect x="138" y="60" width="6" height="6" />
		<rect x="144" y="60" width="6" height="6" />
		<rect x="150" y="60" width="6" height="6" />
		<rect x="156" y="60" width="6" height="6" />
		<rect x="180" y="60" width="6" height="6" />
		<rect x="198" y="60" width="6" height="6" />
		<rect x="204" y="60" width="6" height="6" />
		<rect x="216" y="60" width="6" height="6" />
		<rect x="0" y="66" width="6" height="6" />
		<rect x="12" y="66" width="6" height="6" />
		<rect x="18" y="66" width="6" height="6" />
		<rect x="24" y="66" width="6" height="6" />
		<rect x="30" y="66" width="6" height="6" />
		<rect x="42" y="66" width="6" height="6" />
		<rect x="48" y="66" width="6" height="6" />
		<rect x="54" y="66" width="6" height="6" />
		<rect x="66" y="66" width="6" height="6" />
		<rect x="72" y="66" width="6" height="6" />
		<rect x="78" y="66" width="6" height="6" />
		<rect x="90" y="66" width="6" height="6" />
		<rect x="96" y="66" width="6" height="6" />
		<rect x="102" y="66" width="6" height="6" />
		<rect x="108" y="66" width="6" height="6" />
		<rect x="126" y="66" width="6" height="6" />
		<rect x="138" y="66" width="6" height="6" />
		<rect x="144" y="66" width="6" height="6" />
		<rect x="162" y="66" width="6" height="6" />
		<rect x="168" y="66" width="6" height="6" />
		<rect x="180" y="66" width="6" height="6" />
		<rect x="186" y="66" width="6" height="6" />
		<rect x="192" y="66" width="6" height="6" />
		<rect x="198" y="66" width="6" height="6" />
		<rect x="204" y="66" width="6" height="6" />
		<rect x="216" y="66" width="6" height="6" />
		<rect x="12" y="72" width="6" height="6" />
		<rect x="24" y="72" width="6" height="6" />
		<rect x="36" y="72" width="6" height="6" />
		<rect x="54" y="72" width="6" height="6" />
		<rect x="60" y="72" width="6" height="6" />
		<rect x="78" y="72" width="6" height="6" />
		<rect x="96" y="72" width="6" height="6" />
		<rect x="114" y="72" width="6" height="6" />
		<rect x="120" y="72" width="6" height="6" />
		<rect x="138" y="72" width="6" height="6" />
		<rect x="150" y="72" width="6" height="6" />
		<rect x="156" y="72" width="6" height="6" />
		<rect x="162" y="72" width="6" height="6" />
		<rect x="174" y="72" width="6" height="6" />
		<rect x="180" y="72" width="6" height="6" />
		<rect x="192" y="72" width="6" height="6" />
		<rect x="204" y="72" width="6" height="6" />
		<rect x="0" y="78" width="6" height="6" />
		<rect x="12" y="78" width="6" height="6" />
		<rect x="24" y="78" width="6" height="6" />
		<rect x="30" y="78" width="6" height="6" />
		<rect x="48" y="78" width="6" height="6" />
		<rect x="60" y="78" width="6" height="6" />
		<rect x="66" y="78" width="6" height="6" />
		<rect x="78" y="78" width="6" height="6" />
		<rect x="96" y="78" width="6" height="6" />
		<rect x="102" y="78" width="6" height="6" />
		<rect x="114" y="78" width="6" height="6" />
		<rect x="120" y="78" width="6" height="6" />
		<rect x="126" y="78" width="6" height="6" />
		<rect x="138" y="78" width="6" height="6" />
		<rect x="168" y="78" width="6" height="6" />
		<rect x="174" y="78" width="6" height="6" />
		<rect x="192" y="78" width="6" height="6" />
		<rect x="0" y="84" width="6" height="6" />
		<rect x="6" y="84" width="6" height="6" />
		<rect x="12" y="84" width="6" height="6" />
		<rect x="18" y="84" width="6" height="6" />
		<rect x="36" y="84" width="6" height="6" />
		<rect x="42" y="84" width="6" height="6" />
		<rect x="48" y="84" width="6" height="6" />
		<rect x="54" y="84" width="6" height="6" />
		<rect x="60" y="84" width="6" height="6" />
		<rect x="66" y="84" width="6" height="6" />
		<rect x="72" y="84" width="6" height="6" />
		<rect x="102" y="84" width="6" height="6" />
		<rect x="114" y="84" width="6" height="6" />
		<rect x="126" y="84" width="6" height="6" />
		<rect x="138" y="84" width="6" height="6" />
		<rect x="144" y="84" width="6" height="6" />
		<rect x="162" y="84" width="6" height="6" />
		<rect x="180" y="84" width="6" height="6" />
		<rect x="186" y="84" width="6" height="6" />
		<rect x="198" y="84" width="6" height="6" />
		<rect x="210" y="84" width="6" height="6" />
		<rect x="24" y="90" width="6" height="6" />
		<rect x="30" y="90" width="6" height="6" />
		<rect x="42" y="90" width="6" height="6" />
		<rect x="54" y="90" width="6" height="6" />
		<rect x="60" y="90" width="6" height="6" />
		<rect x="66" y="90" width="6" height="6" />
		<rect x="78" y="90" width="6" height="6" />
		<rect x="96" y="90" width="6" height="6" />
		<rect x="102" y="90" width="6" height="6" />
		<rect x="108" y="90" width="6" height="6" />
		<rect x="120" y="90" width="6" height="6" />
		<rect x="132" y="90" width="6" height="6" />
		<rect x="150" y="90" width="6" height="6" />
		<rect x="156" y="90" width="6" height="6" />
		<rect x="168" y="90" width="6" height="6" />
		<rect x="192" y="90" width="6" height="6" />
		<rect x="198" y="90" width="6" height="6" />
		<rect x="204" y="90" width="6" height="6" />
		<rect x="0" y="96" width="6" height="6" />
		<rect x="6" y="96" width="6" height="6" />
		<rect x="12" y="96" width="6" height="6" />
		<rect x="24" y="96" width="6" height="6" />
		<rect x="36" y="96" width="6" height="6" />
		<rect x="42" y="96" width="6" height="6" />
		<rect x="48" y="96" width="6" height="6" />
		<rect x="66" y="96" width="6" height="6" />
		<rect x="72" y="96" width="6" height="6" />
		<rect x="84" y="96" width="6" height="6" />
		<rect x="96" y="96" width="6" height="6" />
		<rect x="126" y="96" width="6" height="6" />
		<rect x="138" y="96" width="6" height="6" />
		<rect x="156" y="96" width="6" height="6" />
		<rect x="162" y="96" width="6" height="6" />
		<rect x="174" y="96" width="6" height="6" />
		<rect x="180" y="96" width="6" height="6" />
		<rect x="186" y="96" width="6" height="6" />
		<rect x="198" y="96" width="6" height="6" />
		<rect x="204" y="96" width="6" height="6" />
		<rect x="210" y="96" width="6" height="6" />
		<rect x="24" y="102" width="6" height="6" />
		<rect x="42" y="102" width="6" height="6" />
		<rect x="48" y="102" width="6" height="6" />
		<rect x="54" y="102" width="6" height="6" />
		<rect x="60" y="102" width="6" height="6" />
		<rect x="66" y="102" width="6" height="6" />
		<rect x="108" y="102" width="6" height="6" />
		<rect x="120" y="102" width="6" height="6" />
		<rect x="150" y="102" width="6" height="6" />
		<rect x="168" y="102" width="6" height="6" />
		<rect x="180" y="102" width="6" height="6" />
		<rect x="186" y="102" width="6" height="6" />
		<rect x="192" y="102" width="6" height="6" />
		<rect x="210" y="102" width="6" height="6" />
		<rect x="0" y="108" width="6" height="6" />
		<rect x="6" y="108" width="6" height="6" />
		<rect x="18" y="108" width="6" height="6" />
		<rect x="36" y="108" width="6" height="6" />
		<rect x="42" y="108" width="6" height="6" />
		<rect x="60" y="108" width="6" height="6" />
		<rect x="72" y="108" width="6" height="6" />
		<rect x="84" y="108" width="6" height="6" />
		<rect x="90" y="108" width="6" height="6" />
		<rect x="108" y="108" width="6" height="6" />
		<rect x="120" y="108" width="6" height="6" />
		<rect x="126" y="108" width="6" height="6" />
		<rect x="144" y="108" width="6" height="6" />
		<rect x="150" y="108" width="6" height="6" />
		<rect x="156" y="108" width="6" height="6" />
		<rect x="168" y="108" width="6" height="6" />
		<rect x="180" y="108" width="6" height="6" />
		<rect x="186" y="108" width="6" height="6" />
		<rect x="192" y="108" width="6" height="6" />
		<rect x="198" y="108" width="6" height="6" />
		<rect x="216" y="108" width="6" height="6" />
		<rect x="0" y="114" width="6" height="6" />
		<rect x="6" y="114" width="6" height="6" />
		<rect x="12" y="114" width="6" height="6" />
		<rect x="18" y="114" width="6" height="6" />
		<rect x="24" y="114" width="6" height="6" />
		<rect x="42" y="114" width="6" height="6" />
		<rect x="48" y="114" width="6" height="6" />
		<rect x="54" y="114" width="6" height="6" />
		<rect x="72" y="114" width="6" height="6" />
		<rect x="78" y="114" width="6" height="6" />
		<rect x="102" y="114" width="6" height="6" />
		<rect x="108" y="114" width="6" height="6" />
		<rect x="114" y="114" width="6" height="6" />
		<rect x="120" y="114" width="6" height="6" />
		<rect x="126" y="114" width="6" height="6" />
		<rect x="138" y="114" width="6" height="6" />
		<rect x="144" y="114" width="6" height="6" />
		<rect x="162" y="114" width="6" height="6" />
		<rect x="198" y="114" width="6" height="6" />
		<rect x="204" y="114" width="6" height="6" />
		<rect x="216" y="114" width="6" height="6" />
		<rect x="0" y="120" width="6" height="6" />
		<rect x="24" y="120" width="6" height="6" />
		<rect x="36" y="120" width="6" height="6" />
		<rect x="54" y="120" width="6" height="6" />
		<rect x="66" y="120" width="6" height="6" />
		<rect x="72" y="120" width="6" height="6" />
		<rect x="78" y="120" width="6" height="6" />
		<rect x="90" y="120" width="6" height="6" />
		<rect x="102" y="120" width="6" height="6" />
		<rect x="114" y="120" width="6" height="6" />
		<rect x="126" y="120" width="6" height="6" />
		<rect x="132" y="120" width="6" height="6" />
		<rect x="174" y="120" width="6" height="6" />
		<rect x="180" y="120" width="6" height="6" />
		<rect x="204" y="120" width="6" height="6" />
		<rect x="210" y="120" width="6" height="6" />
		<rect x="0" y="126" width="6" height="6" />
		<rect x="6" y="126" width="6" height="6" />
		<rect x="18" y="126" width="6" height="6" />
		<rect x="24" y="126" width="6" height="6" />
		<rect x="42" y="126" width="6" height="6" />
		<rect x="66" y="126" width="6" height="6" />
		<rect x="84" y="126" width="6" height="6" />
		<rect x="96" y="126" width="6" height="6" />
		<rect x="108" y="126" width="6" height="6" />
		<rect x="126" y="126" width="6" height="6" />
		<rect x="132" y="126" width="6" height="6" />
		<rect x="156" y="126" width="6" height="6" />
		<rect x="168" y="126" width="6" height="6" />
		<rect x="174" y="126" width="6" height="6" />
		<rect x="180" y="126" width="6" height="6" />
		<rect x="192" y="126" width="6" height="6" />
		<rect x="210" y="126" width="6" height="6" />
		<rect x="216" y="126" width="6" height="6" />
		<rect x="0" y="132" width="6" height="6" />
		<rect x="12" y="132" width="6" height="6" />
		<rect x="18" y="132" width="6" height="6" />
		<rect x="24" y="132" width="6" height="6" />
		<rect x="30" y="132" width="6" height="6" />
		<rect x="36" y="132" width="6" height="6" />
		<rect x="54" y="132" width="6" height="6" />
		<rect x="66" y="132" width="6" height="6" />
		<rect x="72" y="132" width="6" height="6" />
		<rect x="84" y="132" width="6" height="6" />
		<rect x="108" y="132" width="6" height="6" />
		<rect x="132" y="132" width="6" height="6" />
		<rect x="144" y="132" width="6" height="6" />
		<rect x="150" y="132" width="6" height="6" />
		<rect x="162" y="132" width="6" height="6" />
		<rect x="180" y="132" width="6" height="6" />
		<rect x="210" y="132" width="6" height="6" />
		<rect x="18" y="138" width="6" height="6" />
		<rect x="30" y="138" width="6" height="6" />
		<rect x="42" y="138" width="6" height="6" />
		<rect x="48" y="138" width="6" height="6" />
		<rect x="66" y="138" width="6" height="6" />
		<rect x="84" y="138" width="6" height="6" />
		<rect x="114" y="138" width="6" height="6" />
		<rect x="126" y="138" width="6" height="6" />
		<rect x="144" y="138" width="6" height="6" />
		<rect x="150" y="138" width="6" height="6" />
		<rect x="180" y="138" width="6" height="6" />
		<rect x="204" y="138" width="6" height="6" />
		<rect x="216" y="138" width="6" height="6" />
		<rect x="0" y="144" width="6" height="6" />
		<rect x="6" y="144" width="6" height="6" />
		<rect x="24" y="144" width="6" height="6" />
		<rect x="36" y="144" width="6" height="6" />
		<rect x="48" y="144" width="6" height="6" />
		<rect x="66" y="144" width="6" height="6" />
		<rect x="72" y="144" width="6" height="6" />
		<rect x="78" y="144" width="6" height="6" />
		<rect x="96" y="144" width="6" height="6" />
		<rect x="102" y="144" width="6" height="6" />
		<rect x="108" y="144" width="6" height="6" />
		<rect x="114" y="144" width="6" height="6" />
		<rect x="126" y="144" width="6" height="6" />
		<rect x="162" y="144" width="6" height="6" />
		<rect x="168" y="144" width="6" height="6" />
		<rect x="186" y="144" width="6" height="6" />
		<rect x="192" y="144" width="6" height="6" />
		<rect x="216" y="144" width="6" height="6" />
		<rect x="0" y="150" width="6" height="6" />
		<rect x="18" y="150" width="6" height="6" />
		<rect x="24" y="150" width="6" height="6" />
		<rect x="60" y="150" width="6" height="6" />
		<rect x="72" y="150" width="6" height="6" />
		<rect x="84" y="150" width="6" height="6" />
		<rect x="96" y="150" width="6" height="6" />
		<rect x="150" y="150" width="6" height="6" />
		<rect x="168" y="150" width="6" height="6" />
		<rect x="186" y="150" width="6" height="6" />
		<rect x="198" y="150" width="6" height="6" />
		<rect x="210" y="150" width="6" height="6" />
		<rect x="0" y="156" width="6" height="6" />
		<rect x="12" y="156" width="6" height="6" />
		<rect x="36" y="156" width="6" height="6" />
		<rect x="42" y="156" width="6" height="6" />
		<rect x="48" y="156" width="6" height="6" />
		<rect x="54" y="156" width="6" height="6" />
		<rect x="60" y="156" width="6" height="6" />
		<rect x="66" y="156" width="6" height="6" />
		<rect x="102" y="156" width="6" height="6" />
		<rect x="120" y="156" width="6" height="6" />
		<rect x="138" y="156" width="6" height="6" />
		<rect x="144" y="156" width="6" height="6" />
		<rect x="156" y="156" width="6" height="6" />
		<rect x="180" y="156" width="6" height="6" />
		<rect x="192" y="156" width="6" height="6" />
		<rect x="198" y="156" width="6" height="6" />
		<rect x="210" y="156" width="6" height="6" />
		<rect x="216" y="156" width="6" height="6" />
		<rect x="0" y="162" width="6" height="6" />
		<rect x="12" y="162" width="6" height="6" />
		<rect x="18" y="162" width="6" height="6" />
		<rect x="30" y="162" width="6" height="6" />
		<rect x="42" y="162" width="6" height="6" />
		<rect x="48" y="162" width="6" height="6" />
		<rect x="78" y="162" width="6" height="6" />
		<rect x="84" y="162" width="6" height="6" />
		<rect x="90" y="162" width="6" height="6" />
		<rect x="102" y="162" width="6" height="6" />
		<rect x="108" y="162" width="6" height="6" />
		<rect x="120" y="162" width="6" height="6" />
		<rect x="126" y="162" width="6" height="6" />
		<rect x="132" y="162" width="6" height="6" />
		<rect x="156" y="162" width="6" height="6" />
		<rect x="174" y="162" width="6" height="6" />
		<rect x="192" y="162" width="6" height="6" />
		<rect x="198" y="162" width="6" height="6" />
		<rect x="0" y="168" width="6" height="6" />
		<rect x="12" y="168" width="6" height="6" />
		<rect x="30" y="168" width="6" height="6" />
		<rect x="36" y="168" width="6" height="6" />
		<rect x="42" y="168" width="6" height="6" />
		<rect x="48" y="168" width="6" height="6" />
		<rect x="78" y="168" width="6" height="6" />
		<rect x="96" y="168" width="6" height="6" />
		<rect x="126" y="168" width="6" height="6" />
		<rect x="132" y="168" width="6" height="6" />
		<rect x="138" y="168" width="6" height="6" />
		<rect x="144" y="168" width="6" height="6" />
		<rect x="162" y="168" width="6" height="6" />
		<rect x="168" y="168" width="6" height="6" />
		<rect x="174" y="168" width="6" height="6" />
		<rect x="180" y="168" width="6" height="6" />
		<rect x="186" y="168" width="6" height="6" />
		<rect x="192" y="168" width="6" height="6" />
		<rect x="216" y="168" width="6" height="6" />
		<rect x="48" y="174" width="6" height="6" />
		<rect x="54" y="174" width="6" height="6" />
		<rect x="60" y="174" width="6" height="6" />
		<rect x="66" y="174" width="6" height="6" />
		<rect x="90" y="174" width="6" height="6" />
		<rect x="96" y="174" width="6" height="6" />
		<rect x="102" y="174" width="6" height="6" />
		<rect x="120" y="174" width="6" height="6" />
		<rect x="144" y="174" width="6" height="6" />
		<rect x="168" y="174" width="6" height="6" />
		<rect x="192" y="174" width="6" height="6" />
		<rect x="198" y="174" width="6" height="6" />
		<rect x="0" y="180" width="6" height="6" />
		<rect x="6" y="180" width="6" height="6" />
		<rect x="12" y="180" width="6" height="6" />
		<rect x="18" y="180" width="6" height="6" />
		<rect x="24" y="180" width="6" height="6" />
		<rect x="30" y="180" width="6" height="6" />
		<rect x="36" y="180" width="6" height="6" />
		<rect x="54" y="180" width="6" height="6" />
		<rect x="60" y="180" width="6" height="6" />
		<rect x="78" y="180" width="6" height="6" />
		<rect x="84" y="180" width="6" height="6" />
		<rect x="96" y="180" width="6" height="6" />
		<rect x="120" y="180" width="6" height="6" />
		<rect x="126" y="180" width="6" height="6" />
		<rect x="132" y="180" width="6" height="6" />
		<rect x="138" y="180" width="6" height="6" />
		<rect x="144" y="180" width="6" height="6" />
		<rect x="150" y="180" width="6" height="6" />
		<rect x="162" y="180" width="6" height="6" />
		<rect x="168" y="180" width="6" height="6" />
		<rect x="180" y="180" width="6" height="6" />
		<rect x="192" y="180" width="6" height="6" />
		<rect x="198" y="180" width="6" height="6" />
		<rect x="0" y="186" width="6" height="6" />
		<rect x="36" y="186" width="6" height="6" />
		<rect x="66" y="186" width="6" height="6" />
		<rect x="84" y="186" width="6" height="6" />
		<rect x="90" y="186" width="6" height="6" />
		<rect x="102" y="186" width="6" height="6" />
		<rect x="108" y="186" width="6" height="6" />
		<rect x="114" y="186" width="6" height="6" />
		<rect x="132" y="186" width="6" height="6" />
		<rect x="144" y="186" width="6" height="6" />
		<rect x="150" y="186" width="6" height="6" />
		<rect x="168" y="186" width="6" height="6" />
		<rect x="192" y="186" width="6" height="6" />
		<rect x="204" y="186" width="6" height="6" />
		<rect x="0" y="192" width="6" height="6" />
		<rect x="12" y="192" width="6" height="6" />
		<rect x="18" y="192" width="6" height="6" />
		<rect x="24" y="192" width="6" height="6" />
		<rect x="36" y="192" width="6" height="6" />
		<rect x="54" y="192" width="6" height="6" />
		<rect x="84" y="192" width="6" height="6" />
		<rect x="96" y="192" width="6" height="6" />
		<rect x="126" y="192" width="6" height="6" />
		<rect x="144" y="192" width="6" height="6" />
		<rect x="156" y="192" width="6" height="6" />
		<rect x="168" y="192" width="6" height="6" />
		<rect x="174" y="192" width="6" height="6" />
		<rect x="180" y="192" width="6" height="6" />
		<rect x="186" y="192" width="6" height="6" />
		<rect x="192" y="192" width="6" height="6" />
		<rect x="198" y="192" width="6" height="6" />
		<rect x="204" y="192" width="6" height="6" />
		<rect x="216" y="192" width="6" height="6" />
		<rect x="0" y="198" width="6" height="6" />
		<rect x="12" y="198" width="6" height="6" />
		<rect x="18" y="198" width="6" height="6" />
		<rect x="24" y="198" width="6" height="6" />
		<rect x="36" y="198" width="6" height="6" />
		<rect x="72" y="198" width="6" height="6" />
		<rect x="78" y="198" width="6" height="6" />
		<rect x="84" y="198" width="6" height="6" />
		<rect x="96" y="198" width="6" height="6" />
		<rect x="108" y="198" width="6" height="6" />
		<rect x="126" y="198" width="6" height="6" />
		<rect x="156" y="198" width="6" height="6" />
		<rect x="168" y="198" width="6" height="6" />
		<rect x="174" y="198" width="6" height="6" />
		<rect x="192" y="198" width="6" height="6" />
		<rect x="198" y="198" width="6" height="6" />
		<rect x="216" y="198" width="6" height="6" />
		<rect x="0" y="204" width="6" height="6" />
		<rect x="12" y="204" width="6" height="6" />
		<rect x="18" y="204" width="6" height="6" />
		<rect x="24" y="204" width="6" height="6" />
		<rect x="36" y="204" width="6" height="6" />
		<rect x="54" y="204" width="6" height="6" />
		<rect x="60" y="204" width="6" height="6" />
		<rect x="78" y="204" width="6" height="6" />
		<rect x="90" y="204" width="6" height="6" />
		<rect x="96" y="204" width="6" height="6" />
		<rect x="102" y="204" width="6" height="6" />
		<rect x="108" y="204" width="6" height="6" />
		<rect x="114" y="204" width="6" height="6" />
		<rect x="126" y="204" width="6" height="6" />
		<rect x="132" y="204" width="6" height="6" />
		<rect x="138" y="204" width="6" height="6" />
		<rect x="144" y="204" width="6" height="6" />
		<rect x="168" y="204" width="6" height="6" />
		<rect x="180" y="204" width="6" height="6" />
		<rect x="192" y="204" width="6" height="6" />
		<rect x="198" y="204" width="6" height="6" />
		<rect x="216" y="204" width="6" height="6" />
		<rect x="0" y="210" width="6" height="6" />
		<rect x="36" y="210" width="6" height="6" />
		<rect x="66" y="210" width="6" height="6" />
		<rect x="72" y="210" width="6" height="6" />
		<rect x="102" y="210" width="6" height="6" />
		<rect x="108" y="210" width="6" height="6" />
		<rect x="114" y="210" width="6" height="6" />
		<rect x="120" y="210" width="6" height="6" />
		<rect x="126" y="210" width="6" height="6" />
		<rect x="138" y="210" width="6" height="6" />
		<rect x="144" y="210" width="6" height="6" />
		<rect x="162" y="210" width="6" height="6" />
		<rect x="168" y="210" width="6" height="6" />
		<rect x="174" y="210" width="6" height="6" />
		<rect x="180" y="210" width="6" height="6" />
		<rect x="186" y="210" width="6" height="6" />
		<rect x="192" y="210" width="6" height="6" />
		<rect x="198" y="210" width="6" height="6" />
		<rect x="204" y="210" width="6" height="6" />
		<rect x="216" y="210" width="6" height="6" />
		<rect x="0" y="216" width="6" height="6" />
		<rect x="6" y="216" width="6" height="6" />
		<rect x="12" y="216" width="6" height="6" />
		<rect x="18" y="216" width="6" height="6" />
		<rect x="24" y="216" width="6" height="6" />
		<rect x="30" y="216" width="6" height="6" />
		<rect x="36" y="216" width="6" height="6" />
		<rect x="48" y="216" width="6" height="6" />
		<rect x="54" y="216" width="6" height="6" />
		<rect x="60" y="216" width="6" height="6" />
		<rect x="66" y="216" width="6" height="6" />
		<rect x="84" y="216" width="6" height="6" />
		<rect x="90" y="216" width="6" height="6" />
		<rect x="96" y="216" width="6" height="6" />
		<rect x="102" y="216" width="6" height="6" />
		<rect x="126" y="216" width="6" height="6" />
		<rect x="138" y="216" width="6" height="6" />
		<rect x="144" y="216" width="6" height="6" />
		<rect x="150" y="216" width="6" height="6" />
		<rect x="156" y="216" width="6" height="6" />
		<rect x="174" y="216" width="6" height="6" />
		<rect x="180" y="216" width="6" height="6" />
		<rect x="198" y="216" width="6" height="6" />
		<rect x="204" y="216" width="6" height="6" />
		<rect x="216" y="216" width="6" height="6" />
	</g>
</svg>
