<?xml version="1.0" encoding="UTF-8" standalone="no"?>
<!-- Created with Inkscape (http://www.inkscape.org/) -->

<svg
   version="1.1"
   id="svg1"
   width="21"
   height="21"
   viewBox="0 0 21 21"
   sodipodi:docname="vatican_hover.svg"
   inkscape:version="1.4.2 (2aeb623e1d, 2025-05-12)"
   xmlns:inkscape="http://www.inkscape.org/namespaces/inkscape"
   xmlns:sodipodi="http://sodipodi.sourceforge.net/DTD/sodipodi-0.dtd"
   xmlns="http://www.w3.org/2000/svg"
   xmlns:svg="http://www.w3.org/2000/svg">
  <defs
     id="defs1" />
  <sodipodi:namedview
     id="namedview1"
     pagecolor="#ffffff"
     bordercolor="#999999"
     borderopacity="1"
     inkscape:showpageshadow="2"
     inkscape:pageopacity="0"
     inkscape:pagecheckerboard="0"
     inkscape:deskcolor="#d1d1d1"
     inkscape:zoom="22.099762"
     inkscape:cx="9.049871"
     inkscape:cy="12.692444"
     inkscape:window-width="2518"
     inkscape:window-height="1371"
     inkscape:window-x="0"
     inkscape:window-y="0"
     inkscape:window-maximized="1"
     inkscape:current-layer="g1" />
  <g
     inkscape:groupmode="layer"
     inkscape:label="Image"
     id="g1">
    <path
       style="fill:#d90c13;fill-opacity:1;stroke-width:0.0851037"
       d="M 0,10.5 V 0 L 10.499999,0.02158866 21,0.04317648 V 10.5 20.956823 L 10.499999,20.978412 0,21 Z m 7.4471204,8.820709 c 0.5526434,-0.196915 1.218564,-0.803855 1.4676709,-1.33768 L 9.1139539,17.556231 V 16.918619 16.281008 L 8.9018045,15.826239 c -0.1166825,-0.250123 -0.2121494,-0.478048 -0.2121494,-0.5065 0,-0.02845 0.4090962,-0.448271 0.9091022,-0.932933 l 0.9091027,-0.881202 0.894418,0.892552 0.894419,0.892551 -0.227456,0.505781 -0.227456,0.505782 -4.26e-4,0.541966 c -8.52e-4,1.079015 0.512066,1.895062 1.494417,2.377661 l 0.547907,0.269171 0.664868,-0.03841 0.664868,-0.03841 0.453729,-0.246435 c 0.462174,-0.251019 0.883508,-0.694553 1.167509,-1.229018 l 0.158112,-0.297553 0.0016,-0.722626 0.0016,-0.722626 -0.206103,-0.41788 c -0.245088,-0.496907 -0.73101,-0.98901 -1.210225,-1.225611 l -0.34693,-0.171289 0.285276,-0.143559 c 0.750367,-0.3776 1.179806,-1.039428 1.179806,-1.818243 0,-0.866013 -0.333769,-1.509533 -1.476853,-2.8474326 -0.185021,-0.216554 -0.300426,-0.424944 -0.266061,-0.4804315 0.03823,-0.061729 0.497667,0.3372393 1.241533,1.0781311 l 1.180844,1.176123 0.428105,-0.420788 0.428105,-0.420787 -0.42652,-0.425629 -0.426518,-0.4256283 -0.133166,0.1897258 C 17.082372,10.07758 16.94029,10.082842 16.739557,9.861498 L 16.584553,9.6905774 16.7838,9.4789312 16.983048,9.2672851 16.78296,9.0547481 16.582875,8.842211 16.783409,8.6291971 16.983945,8.4161838 17.16582,8.5866896 c 0.233627,0.2190238 0.332712,0.2148572 0.494122,-0.020777 l 0.131031,-0.1912834 0.237167,0.231469 0.237167,0.2314699 -0.20485,0.2175988 -0.204851,0.2175997 0.40085,0.4000143 0.400851,0.4000131 L 19.085832,9.6451645 19.514359,9.2175336 18.349419,8.0543549 17.184481,6.891176 17.296512,6.7564684 17.408544,6.6217606 17.141737,6.3555121 16.874931,6.0892626 16.704343,6.2433222 16.533753,6.397381 16.300266,6.1204767 C 15.987328,5.7493478 15.622274,5.6116476 14.951318,5.6116476 c -0.656304,0 -1.077381,0.1541361 -1.490873,0.5457349 L 13.162272,6.4397711 12.267748,6.3165472 11.373225,6.1933242 10.010142,6.2426498 C 9.2604461,6.2697788 8.4606196,6.3298384 8.2327496,6.3761153 L 7.8184396,6.4602563 7.6573879,6.2559384 C 7.5688088,6.1435641 7.2972639,5.9526268 7.0539554,5.8316345 L 6.611576,5.6116476 H 6.0762745 c -0.6547075,0 -1.1537451,0.1879261 -1.4371377,0.5411925 L 4.4253901,6.4192884 4.3118222,6.2705125 C 4.1556205,6.0658852 4.0739233,6.0821673 3.7940261,6.3737069 L 3.552118,6.6256781 3.6651449,6.7615829 3.7781726,6.8974884 2.6121673,8.0632899 1.4461622,9.2290922 1.8730006,9.6486345 2.299839,10.068177 2.6833876,9.6925378 C 2.8943401,9.4859357 3.066937,9.2831753 3.066937,9.2419575 c 0,-0.041217 -0.086258,-0.1457783 -0.1916836,-0.2323591 L 2.68357,8.8521798 2.9155233,8.617658 3.1474774,8.3831369 3.3627848,8.5849859 3.5780932,8.7868349 3.7757761,8.6015094 3.9734589,8.4161838 4.1739931,8.6291971 4.3745283,8.842211 4.1879708,9.0403781 4.0014124,9.2385451 4.17312,9.3936138 C 4.387676,9.5873787 4.3897266,9.7104734 4.18153,9.8984965 L 4.0182295,10.04597 3.8481823,9.9551537 C 3.754656,9.905205 3.6602726,9.8160779 3.6384412,9.7570946 3.6135403,9.6898199 3.4357354,9.8074855 3.1613536,10.072813 l -0.437393,0.422962 0.4270021,0.426111 0.4270028,0.426111 1.1891018,-1.184348 1.1891017,-1.1843481 0.053004,0.1378387 0.053003,0.137838 -0.6023764,0.695633 c -0.987494,1.1403724 -1.3839552,2.2014954 -1.1203434,2.9985804 0.1609401,0.486635 0.5754578,0.983388 0.987149,1.182984 0.2097172,0.101676 0.3803155,0.205935 0.3791066,0.231687 -0.00121,0.02575 -0.1460978,0.112888 -0.3219755,0.193637 -0.4325574,0.198597 -0.9850006,0.760053 -1.2221701,1.242111 l -0.1950189,0.396383 -0.00127,0.680119 -0.00127,0.680119 0.1844727,0.401233 c 0.2478631,0.539112 0.8668604,1.122686 1.4130887,1.332222 0.5596922,0.214701 1.3342855,0.227446 1.8855504,0.03102 z M 5.573308,18.342618 C 5.321296,18.172555 5.0857501,17.919226 4.9606932,17.683753 l -0.2031778,-0.382567 0.031778,-0.528268 0.031777,-0.528268 0.2641613,-0.363903 c 0.8956351,-1.233806 2.8251074,-0.857064 3.1804316,0.620999 l 0.097999,0.407651 -0.131483,0.451338 L 8.1006975,17.812074 7.77753,18.120428 C 7.3249805,18.552234 7.1584296,18.618916 6.5324704,18.618916 H 5.9827448 Z m 8.074603,0.134183 c -0.662575,-0.325858 -1.116813,-1.222742 -0.96288,-1.901186 0.220524,-0.971936 0.947014,-1.505562 1.93805,-1.423549 l 0.461998,0.03823 0.352543,0.247804 c 1.087641,0.764506 0.97503,2.414639 -0.206034,3.019058 -0.396244,0.202782 -1.191243,0.212641 -1.583677,0.01964 z M 7.6017741,14.540854 7.1528393,14.313789 7.5921056,14.108477 C 8.0472263,13.895755 8.6326109,13.383938 9.0939208,12.7954 l 0.2665458,-0.340059 0.1471806,0.0897 c 0.080949,0.04934 0.2024068,0.172705 0.2699066,0.274152 l 0.1227261,0.18445 -0.9043128,0.894801 c -0.497372,0.492144 -0.9135255,0.889106 -0.9247846,0.88214 -0.01126,-0.007 -0.2224935,-0.114844 -0.4694084,-0.23973 z m 4.3579319,-0.692646 -0.909501,-0.910426 0.237844,-0.219967 c 0.130816,-0.120982 0.261,-0.219947 0.2893,-0.219921 0.0283,2.5e-5 0.324306,0.297754 0.657791,0.661621 0.377475,0.411863 0.78454,0.756996 1.078456,0.914379 l 0.472119,0.252804 -0.458254,0.215968 -0.458253,0.215967 z M 5.6653144,13.826798 C 5.1745798,13.596781 4.9997473,13.423635 4.8166366,12.986303 4.4831047,12.189716 4.8596138,11.208211 5.9578447,10.011338 L 6.4062326,9.5226757 6.6601623,9.703112 C 6.7998239,9.802352 6.93367,9.9344594 6.9575972,9.9966846 6.9815251,10.058904 6.7772238,10.401251 6.5035943,10.757445 5.6540528,11.863323 5.5958628,11.96703 5.5560444,12.446184 l -0.037307,0.448927 0.1351173,0.260743 c 0.169243,0.326597 0.578944,0.579693 1.076368,0.664936 L 7.11359,13.88648 6.9006081,13.94882 c -0.4019995,0.117668 -0.8098724,0.07737 -1.235294,-0.122027 z m 8.4979716,0.14132 c -0.105426,-0.02027 -0.191684,-0.07469 -0.191684,-0.120963 0,-0.04626 0.03745,-0.06102 0.08323,-0.03279 0.141369,0.08719 0.747433,-0.119429 1.018866,-0.347348 0.141852,-0.119111 0.302449,-0.364905 0.356882,-0.546205 l 0.09897,-0.32964 -0.104701,-0.373177 c -0.05759,-0.205248 -0.293828,-0.618377 -0.52498,-0.918064 -0.231154,-0.299688 -0.531621,-0.700523 -0.667707,-0.890744 l -0.247428,-0.345859 0.253332,-0.2704992 c 0.139334,-0.1487751 0.277758,-0.2705002 0.30761,-0.2705002 0.08504,0 0.670416,0.6692084 1.100048,1.2575784 0.446947,0.612082 0.733206,1.410385 0.654294,1.824663 -0.186239,0.977747 -1.102351,1.56236 -2.136727,1.363547 z M 6.730223,13.401802 c 0,-0.01716 0.1437627,-0.126683 0.3194727,-0.243371 0.3829471,-0.254311 0.9052388,-0.748358 1.2806932,-1.211432 l 0.2742984,-0.338311 0.2635887,0.263038 0.263588,0.263037 -0.4909196,0.478301 -0.4909195,0.478303 -0.4575188,0.170822 C 7.29342,13.411196 6.730223,13.492907 6.730223,13.401802 Z m 6.814865,-0.04822 c -0.428067,-0.12994 -0.817535,-0.372397 -1.213445,-0.755408 -0.222566,-0.215316 -0.404665,-0.412439 -0.404665,-0.438055 0,-0.02562 0.100834,-0.15509 0.224078,-0.287726 l 0.224079,-0.241153 0.617001,0.669133 c 0.339352,0.368025 0.756061,0.743866 0.926023,0.835206 0.169962,0.09134 0.309021,0.195629 0.309021,0.231753 0,0.08131 -0.395175,0.07335 -0.682092,-0.01375 z M 6.0176322,12.964801 c -0.1660628,-0.431846 5.963e-4,-0.916941 0.5399862,-1.572145 0.1732334,-0.210412 0.415909,-0.533139 0.53928,-0.717169 l 0.2243106,-0.334603 0.4776491,0.484324 0.4776499,0.484324 -0.2789294,0.351442 c -0.5792082,0.729784 -1.2556688,1.282139 -1.7030702,1.39062 l -0.2227338,0.05401 z M 14.263067,12.844889 C 13.828765,12.595117 13.001143,11.76927 12.847161,11.43202 l -0.08237,-0.180401 0.454319,-0.444418 0.454317,-0.444419 0.127789,0.193773 c 0.07028,0.106577 0.314707,0.424375 0.543161,0.706222 0.228455,0.281845 0.491298,0.680172 0.584096,0.88517 l 0.168722,0.372723 -0.07596,0.264304 c -0.100009,0.347996 -0.238263,0.358921 -0.75817,0.05991 z m -4.06769,-0.758082 -0.3037688,-0.311585 0.3024098,-0.492121 0.302412,-0.49212 0.28713,0.449613 c 0.157921,0.247288 0.288111,0.491287 0.28931,0.542223 0.0012,0.05093 -0.127397,0.210275 -0.285771,0.354091 l -0.287951,0.261483 z M 9.2904868,11.184734 9.011784,10.897786 l 0.158104,-0.267091 0.1581049,-0.26709 0.1706895,0.04578 c 0.093879,0.02518 0.2761147,0.0463 0.4049686,0.04694 0.128853,6.8e-4 0.23428,0.03114 0.23428,0.06779 0,0.03664 -0.127967,0.264838 -0.2843708,0.507094 l -0.2843706,0.440468 z m 1.8753842,-0.104707 c -0.309317,-0.491606 -0.323868,-0.622155 -0.06951,-0.623695 0.105426,-6.8e-4 0.276597,-0.02388 0.380379,-0.05164 l 0.188697,-0.05048 0.146681,0.306949 0.14668,0.30695 -0.267473,0.260959 -0.267474,0.260958 z m 0.94344,-0.789524 C 11.890937,9.9027692 11.934498,9.9132347 11.075051,10.042037 L 10.436105,10.137793 9.7710503,10.012845 9.1059952,9.8878968 8.9191233,10.214548 c -0.1027799,0.179657 -0.2073496,0.326945 -0.2323784,0.327305 -0.025028,3.4e-4 -0.2511864,-0.207178 -0.502573,-0.461194 L 7.7271054,9.6188096 7.8236355,9.3792862 C 7.9906439,8.9648831 8.1759295,8.0506822 8.1772397,7.6346018 l 0.00126,-0.3999676 0.3194726,-0.065451 c 0.4218504,-0.086425 3.4480667,-0.088374 3.9498417,-0.00254 l 0.393047,0.067231 0.04425,0.7404094 c 0.02707,0.4528961 0.114166,0.9217665 0.224298,1.2074418 l 0.180048,0.4670315 -0.493454,0.4924241 -0.493455,0.492425 z m 0.370894,-1.4969383 0.235281,-0.6437502 -0.09077,-0.090582 C 12.425159,7.8600942 8.682251,7.871476 8.3567757,8.0722105 L 8.2451383,8.1410625 8.4866681,8.7891892 8.7281988,9.437315 h 1.7583632 1.758363 z M 7.0521765,9.0133671 6.8203773,8.7813158 6.9030892,8.4935193 C 7.0130483,8.110916 7.0084105,7.2125312 6.8949363,6.9136582 6.8449588,6.7820289 6.7234085,6.5884059 6.6248235,6.4833845 6.3867337,6.2297505 6.4836941,6.1570712 6.8957831,6.2802782 7.2943358,6.3994384 7.5323097,6.6990629 7.6738199,7.2598751 L 7.7756294,7.6633546 7.6790831,8.2467442 C 7.5712607,8.8982715 7.4491804,9.2727839 7.3499812,9.2563514 7.3136797,9.2503409 7.1796682,9.1409957 7.052179,9.0133671 Z M 13.429077,8.772873 C 13.170104,7.8518308 13.270948,6.9660324 13.683724,6.5360869 13.919619,6.2903796 14.322136,6.1501961 14.491619,6.2547244 l 0.09821,0.060571 -0.146815,0.081989 c -0.214034,0.11953 -0.46738,0.7329256 -0.469542,1.1368454 -10e-4,0.1923402 0.03682,0.5533139 0.08412,0.8021634 l 0.08598,0.4524531 -0.229712,0.2392691 c -0.126344,0.1315971 -0.255826,0.2392683 -0.287743,0.2392683 -0.03191,0 -0.120584,-0.2224855 -0.197041,-0.4944121 z M 5.8911295,7.8441939 5.4354031,7.3617969 5.5968083,6.9755575 5.7582127,6.5893181 5.9673421,6.6152417 c 0.1150203,0.014258 0.295386,0.1215967 0.400812,0.2385312 l 0.1916835,0.2126084 v 0.63287 0.6328707 L 6.4533469,8.3293591 C 6.3947768,8.3278373 6.1417793,8.109515 5.8911295,7.8441965 Z m 8.5601325,0.2966448 c -0.08773,-0.3266805 -0.05897,-0.821761 0.06493,-1.117672 l 0.118624,-0.2833171 0.268,-0.09323 0.267998,-0.09323 0.166811,0.2730082 c 0.09175,0.1501548 0.166953,0.3508289 0.167128,0.4459426 2.56e-4,0.1518246 -0.814345,1.0597812 -0.950842,1.0597812 -0.0282,0 -0.0744,-0.086078 -0.102648,-0.1912833 z M 4.8955873,6.8820377 C 4.7873432,6.7072609 4.9492901,6.3693525 5.2203392,6.2044322 5.6382358,5.9501622 5.7578174,5.9954972 5.4941213,6.3082277 5.3682074,6.4575562 5.2315703,6.6679679 5.1904826,6.7758092 5.1108998,6.9846915 4.9868414,7.0293813 4.8955873,6.8820377 Z M 15.801469,6.7962689 C 15.770749,6.699681 15.624403,6.4827741 15.476255,6.3142552 l -0.269358,-0.3063977 0.255577,0.063563 c 0.277397,0.06899 0.521494,0.2563877 0.652749,0.5011268 l 0.08321,0.1551613 -0.101536,0.1220882 c -0.14049,0.168932 -0.229822,0.1527469 -0.295427,-0.053528 z M 8.9878295,5.4440655 C 10.220686,5.305675 11.82966,5.3571693 12.975538,5.5716889 l 0.314523,0.058881 -7.67e-4,-0.2007447 C 13.286943,4.8401091 12.191467,3.6680233 11.181574,3.1747129 L 10.73428,2.9562351 V 2.711167 2.466099 h 0.240822 0.240824 L 11.178416,2.2110545 11.140905,1.9560101 H 10.937592 10.73428 V 1.743473 1.5309359 H 10.478702 10.223123 V 1.743473 1.9560101 H 10.010142 9.7971601 V 2.2110545 2.466099 h 0.2129819 0.212981 V 2.7042026 2.942307 L 9.8610547,3.1186346 C 8.7853222,3.6425164 7.6673427,4.829047 7.6673427,5.4468574 V 5.6305702 L 7.944219,5.5803512 c 0.1522819,-0.02762 0.6219066,-0.088949 1.0436105,-0.1362857 z"
       id="path1" />
  </g>
</svg>
